HIERARCHY
ROOT joint_Root
{
	OFFSET 0.0 0.0 0.0
	CHANNELS 6 Xposition Yposition Zposition Zrotation Xrotation Yrotation 
	JOINT Hips
	{
		OFFSET 4.5925 91.4895 -427.239
		CHANNELS 6 Xposition Yposition Zposition Zrotation Xrotation Yrotation 
		JOINT Spine
		{
			OFFSET 15.7357 0.0 0.0
			CHANNELS 6 Xposition Yposition Zposition Zrotation Xrotation Yrotation 
			JOINT Chest
			{
				OFFSET 8.98455 -0.406207 0.0
				CHANNELS 6 Xposition Yposition Zposition Zrotation Xrotation Yrotation 
				JOINT Neck
				{
					OFFSET 16.3773 0.0 0.0
					CHANNELS 6 Xposition Yposition Zposition Zrotation Xrotation Yrotation 
					JOINT Head
					{
						OFFSET 6.45672 0.0 0.0
						CHANNELS 6 Xposition Yposition Zposition Zrotation Xrotation Yrotation 
						End Site
						{
							OFFSET 0.0 0.0 0.0
						}
					}
				}
				JOINT Shoulder_L
				{
					OFFSET 12.9942 -0.242716 4.98039
					CHANNELS 6 Xposition Yposition Zposition Zrotation Xrotation Yrotation 
					JOINT UpperArm_L
					{
						OFFSET 5.34809 0.0 0.0
						CHANNELS 6 Xposition Yposition Zposition Zrotation Xrotation Yrotation 
						JOINT LowerArm_L
						{
							OFFSET 24.3286 1.87007e-05 0.0
							CHANNELS 6 Xposition Yposition Zposition Zrotation Xrotation Yrotation 
							JOINT Hand_L
							{
								OFFSET 22.2916 0.0 0.0
								CHANNELS 6 Xposition Yposition Zposition Zrotation Xrotation Yrotation 
								End Site
								{
									OFFSET 0.0 0.0 0.0
								}
							}
						}
					}
				}
				JOINT Shoulder_R
				{
					OFFSET 12.9945 -0.242716 -4.98039
					CHANNELS 6 Xposition Yposition Zposition Zrotation Xrotation Yrotation 
					JOINT UpperArm_R
					{
						OFFSET -5.34813 0.0 0.0
						CHANNELS 6 Xposition Yposition Zposition Zrotation Xrotation Yrotation 
						JOINT LowerArm_R
						{
							OFFSET -24.3289 0.000322201 0.0
							CHANNELS 6 Xposition Yposition Zposition Zrotation Xrotation Yrotation 
							JOINT Hand_R
							{
								OFFSET -22.2915 -0.000108084 0.0
								CHANNELS 6 Xposition Yposition Zposition Zrotation Xrotation Yrotation 
								End Site
								{
									OFFSET 0.0 0.0 0.0
								}
							}
						}
					}
				}
			}
		}
		JOINT UpperLeg_L
		{
			OFFSET -2.19248 -6.46944 0.0
			CHANNELS 6 Xposition Yposition Zposition Zrotation Xrotation Yrotation 
			JOINT LowerLeg_L
			{
				OFFSET 39.0811 0.0 -1.23785e-05
				CHANNELS 6 Xposition Yposition Zposition Zrotation Xrotation Yrotation 
				JOINT Foot_L
				{
					OFFSET 40.9854 0.0 -1.26872e-05
					CHANNELS 6 Xposition Yposition Zposition Zrotation Xrotation Yrotation 
					JOINT Toes_L
					{
						OFFSET 11.7543 0.0 0.0
						CHANNELS 6 Xposition Yposition Zposition Zrotation Xrotation Yrotation 
						End Site
						{
							OFFSET 0.0 0.0 0.0
						}
					}
				}
			}
		}
		JOINT UpperLeg_R
		{
			OFFSET -2.19251 6.46944 0.0
			CHANNELS 6 Xposition Yposition Zposition Zrotation Xrotation Yrotation 
			JOINT LowerLeg_R
			{
				OFFSET -39.0811 -0.00228153 -0.0401928
				CHANNELS 6 Xposition Yposition Zposition Zrotation Xrotation Yrotation 
				JOINT Foot_R
				{
					OFFSET -40.9854 0.0 0.0
					CHANNELS 6 Xposition Yposition Zposition Zrotation Xrotation Yrotation 
					JOINT Toes_R
					{
						OFFSET -11.7543 0.0 0.0
						CHANNELS 6 Xposition Yposition Zposition Zrotation Xrotation Yrotation 
						End Site
						{
							OFFSET 0.0 0.0 0.0
						}
					}
				}
			}
		}
	}
}
MOTION
Frames:	4
Frame Time:	0.0333333
0.000000 0.000000 0.000000 0.000000 0.000000 -0.000000 101.060000 89.648400 180.517000 -89.595600 45.528700 -176.797000 15.735700 0.000005 -0.000001 94.750100 81.193600 -94.305300 8.984550 -0.406207 -0.000000 9.783150 1.457480 0.764230 16.377300 -0.000001 -0.000001 4.598220 5.927250 1.359970 6.456720 -0.000001 -0.000000 0.325352 10.061800 -0.577130 12.994200 -0.242716 4.980390 -91.067500 3.286830 -71.997000 5.348090 -0.000007 -0.000001 -68.310200 35.022500 -14.071300 24.328600 0.000019 0.000005 7.227350 23.037400 -17.956100 22.291600 -0.000001 0.000005 11.825300 5.269510 0.911198 12.994500 -0.242716 -4.980390 88.598600 9.209050 -81.308700 -5.348130 -0.000001 -0.000004 -56.211200 27.830000 -18.816300 -24.328900 0.000322 -0.000009 0.429655 1.014940 -23.001100 -22.291500 -0.000108 -0.000004 15.717300 5.418750 -3.556640 -2.192480 -6.469440 -0.000000 179.748000 -6.560500 -20.894500 39.081100 -0.000007 -0.000012 0.027269 -0.020633 52.882000 40.985400 -0.000006 -0.000013 4.003340 -4.188570 -66.671700 11.754300 -0.000000 0.000003 -0.003064 -0.041335 -18.257800 -2.192510 6.469440 -0.000001 174.632000 25.866800 174.221000 -39.081100 -0.002282 -0.040193 0.046247 -0.056617 37.191600 -40.985400 0.000008 0.000006 5.630920 9.016280 -73.620000 -11.754300 -0.000006 -0.000006 -1.181450 -1.392050 -19.658900
0.000000 0.000000 0.000000 0.000000 0.000000 -0.000000 102.362000 89.739300 179.645000 -89.337700 44.284000 -177.532000 15.735700 0.000005 -0.000001 96.027400 81.316700 -95.576100 8.984550 -0.406207 -0.000000 9.501010 1.819880 0.750683 16.377300 -0.000001 -0.000001 4.263620 5.710060 1.423990 6.456720 -0.000001 -0.000000 0.150534 9.696420 -0.621670 12.994200 -0.242716 4.980390 -91.094300 3.341140 -71.854400 5.348090 -0.000007 -0.000001 -69.039500 33.967000 -12.497800 24.328600 0.000019 0.000005 6.922670 23.984400 -16.630500 22.291600 -0.000001 0.000005 11.833300 5.264190 1.054550 12.994500 -0.242716 -4.980390 88.630500 9.006150 -81.316700 -5.348130 -0.000001 -0.000004 -55.470400 27.084400 -19.279100 -24.328900 0.000322 -0.000009 0.202756 0.458408 -23.976800 -22.291500 -0.000108 -0.000004 16.271800 5.424320 -3.744550 -2.192480 -6.469440 -0.000000 178.395000 -8.613250 -20.892300 39.081100 -0.000007 -0.000012 0.012921 -0.012681 45.529300 40.985400 -0.000006 -0.000013 2.427090 -1.933410 -67.031800 11.754300 -0.000000 0.000003 -0.003107 -0.041815 -18.277400 -2.192510 6.469440 -0.000001 174.690000 26.577200 174.803000 -39.081100 -0.002282 -0.040193 0.040558 -0.049236 37.126100 -40.985400 0.000008 0.000006 5.284660 8.920370 -72.326700 -11.754300 -0.000006 -0.000006 -1.946050 -2.193380 -21.442900
0.000000 0.000000 0.000000 0.000000 0.000000 -0.000000 103.599000 89.689100 178.665000 -88.889700 43.081500 -178.359000 15.735700 0.000005 -0.000001 97.337100 81.427600 -96.838200 8.984550 -0.406207 -0.000000 9.234010 2.183880 0.820636 16.377300 -0.000001 -0.000001 3.904330 5.471020 1.480990 6.456720 -0.000001 -0.000000 -0.024326 9.312450 -0.653587 12.994200 -0.242716 4.980390 -91.081400 3.270750 -71.694200 5.348090 -0.000007 -0.000001 -69.753300 32.814600 -11.147800 24.328600 0.000019 0.000005 6.625960 24.335400 -15.742900 22.291600 -0.000001 0.000005 11.847200 5.254160 1.322710 12.994500 -0.242716 -4.980390 88.670200 8.755060 -81.328900 -5.348130 -0.000001 -0.000004 -54.746700 26.588700 -19.581700 -24.328900 0.000322 -0.000009 0.206482 0.447909 -24.857100 -22.291500 -0.000108 -0.000004 16.732900 5.428610 -3.890920 -2.192480 -6.469440 -0.000000 176.757000 -10.978800 -21.008700 39.081100 -0.000007 -0.000012 0.003028 -0.003814 38.434900 40.985400 -0.000006 -0.000013 1.718990 -0.643872 -67.125500 11.754300 -0.000000 0.000003 -0.002692 -0.037076 -18.084500 -2.192510 6.469440 -0.000001 174.810000 27.130400 175.176000 -39.081100 -0.002282 -0.040193 0.038956 -0.046184 37.681900 -40.985400 0.000008 0.000006 4.795600 8.792220 -71.615900 -11.754300 -0.000006 -0.000006 -1.652260 -1.821100 -22.460700
0.000000 0.000000 0.000000 0.000000 0.000000 -0.000000 104.846000 89.530200 177.530000 -88.483800 41.841400 -179.000000 15.735700 0.000005 -0.000001 98.030300 81.507500 -97.504400 8.984550 -0.406207 -0.000000 9.047450 2.366050 0.863779 16.377300 -0.000001 -0.000001 3.630050 5.285660 1.591470 6.456720 -0.000001 -0.000000 -0.282810 8.964920 -0.744964 12.994200 -0.242716 4.980390 -91.069500 3.237290 -71.707000 5.348090 -0.000007 -0.000001 -70.343800 31.613400 -9.852220 24.328600 0.000019 0.000005 6.418690 24.303800 -15.287400 22.291600 -0.000001 0.000005 11.953700 5.255290 1.292810 12.994500 -0.242716 -4.980390 88.697000 8.664090 -81.413800 -5.348130 -0.000001 -0.000004 -53.930000 26.308200 -19.777300 -24.328900 0.000322 -0.000009 0.288280 0.605531 -25.541900 -22.291500 -0.000108 -0.000004 16.983000 5.430760 -3.965090 -2.192480 -6.469440 -0.000000 173.921000 -13.550600 -23.212200 39.081100 -0.000007 -0.000012 0.266358 -0.377544 35.203300 40.985400 -0.000006 -0.000013 8.071740 -1.244950 -64.572300 11.754300 -0.000000 0.000003 -0.002801 -0.038338 -18.135800 -2.192510 6.469440 -0.000001 174.770000 27.472700 175.560000 -39.081100 -0.002282 -0.040193 0.043505 -0.050028 38.799500 -40.985400 0.000008 0.000006 4.164580 8.609320 -71.318800 -11.754300 -0.000006 -0.000006 -0.151929 -0.286952 -23.010500
